<svg xmlns="http://www.w3.org/2000/svg" data-name="Layer 1" viewBox="0 0 512 640" x="0px" y="0px"><title>Control2</title><path d="M427.269,129H400.807L374.876,21.469a7.1,7.1,0,0,0-6.8-5.469H143.929a7.1,7.1,0,0,0-6.805,5.469L111.193,129H84.731A48.65,48.65,0,0,0,36,177.571V488.936A7.056,7.056,0,0,0,43,496H469a7.056,7.056,0,0,0,7-7.064V177.571A48.65,48.65,0,0,0,427.269,129ZM149.44,30H362.56L386.4,129H368.356L354.613,45.964a7.1,7.1,0,0,0-6.9-5.964H164.292a7.1,7.1,0,0,0-6.905,5.964L143.644,129H125.6ZM261.624,54l5.225,75h-21.7l5.225-75Zm-30.507,75H157.834l12.394-75h66.114ZM190,143H322v24.378A14.366,14.366,0,0,1,307.466,182H204.534A14.366,14.366,0,0,1,190,167.378Zm90.883-14-5.225-75h66.114l12.394,75ZM378,482H134V399H378Zm84,0H392V392.37a7.616,7.616,0,0,0-7.334-7.37H127.334A7.616,7.616,0,0,0,120,392.37V482H50V177.571A34.635,34.635,0,0,1,84.731,143H176v24.378A28.38,28.38,0,0,0,204.534,196H307.466A28.38,28.38,0,0,0,336,167.378V143h91.269A34.635,34.635,0,0,1,462,177.571Z"/><path d="M153.341,201.641a77.926,77.926,0,1,0,77.927,77.925A78.013,78.013,0,0,0,153.341,201.641Zm0,141.852a63.926,63.926,0,1,1,63.927-63.927A64,64,0,0,1,153.341,343.493Z"/><path d="M160,244.209V238a7,7,0,0,0-14,0v6.336a36.007,36.007,0,1,0,14-.127Zm-6.659,57.343A21.984,21.984,0,0,1,146,258.846V279a7,7,0,0,0,14,0V258.615a21.985,21.985,0,0,1-6.659,42.937Z"/><path d="M358.659,201.641a77.926,77.926,0,1,0,77.925,77.925A78.014,78.014,0,0,0,358.659,201.641Zm0,141.852a63.926,63.926,0,1,1,63.925-63.927A64,64,0,0,1,358.659,343.493Z"/><path d="M364,243.98V238a7,7,0,0,0-14,0v6.641a35.98,35.98,0,1,0,14-.661Zm-5.341,57.572A21.984,21.984,0,0,1,350,259.361V279a7,7,0,0,0,14,0V258.24a21.985,21.985,0,0,1-5.341,43.312Z"/><path d="M350,424a7,7,0,0,0-7-7H169a7,7,0,0,0-7,7v34a7,7,0,0,0,7,7H343a7,7,0,0,0,7-7Zm-174,7H336v20H176Z"/><path d="M255,233a7,7,0,0,0-7,7v87a7,7,0,0,0,14,0V240A7,7,0,0,0,255,233Z"/></svg>