<svg xmlns="http://www.w3.org/2000/svg" data-name="Layer 1" viewBox="0 0 512 640" x="0px" y="0px"><title>Drone2</title><path d="M256,330.62a24.606,24.606,0,1,0,24.606,24.606A24.634,24.634,0,0,0,256,330.62Zm0,35.211a10.606,10.606,0,1,1,10.606-10.605A10.618,10.618,0,0,1,256,365.831Z"/><path d="M505.4,170.859l-87.153-17.807a6.964,6.964,0,0,0-1.484-.138h-.031l-.091,0a7.024,7.024,0,0,0-1.448.136l-87.153,17.807a7,7,0,0,0-5.6,6.858,7.119,7.119,0,0,0,5.731,6.859L384,195.955V229.45a6.408,6.408,0,0,0,6.737,6.55H395v58.679L299.827,221.59l17.729-79.163a7.017,7.017,0,0,0-2.726-7.184l-12.165-8.89a78.729,78.729,0,0,0-93.308,0l-12.153,8.89a7,7,0,0,0-2.7,7.184l17.847,79.957L117,294.778V236h4.263A6.408,6.408,0,0,0,128,229.45V195.955l55.827-11.379a7.06,7.06,0,0,0,5.665-6.859,6.972,6.972,0,0,0-5.566-6.858L96.789,153.052a6.862,6.862,0,0,0-1.473-.138h-.032l-.084,0a7.028,7.028,0,0,0-1.449.137L6.6,170.859A7,7,0,0,0,1,177.717a6.872,6.872,0,0,0,5.452,6.859L62,195.955V229.45c0,3.866,3.428,6.55,7.294,6.55H73V375.593A7.635,7.635,0,0,0,80.318,383H110.24c3.866,0,6.76-3.541,6.76-7.407V340.739l97-61.655v10.475A7.679,7.679,0,0,0,221.333,297H232v19.182a45.792,45.792,0,1,0,48,0V297h10.667A7.679,7.679,0,0,0,298,289.559V279.084l97,61.655v34.854c0,3.866,2.894,7.407,6.76,7.407h29.922A7.635,7.635,0,0,0,439,375.593V236h3.706c3.866,0,7.294-2.684,7.294-6.55V195.955l55.548-11.379a6.936,6.936,0,0,0,5.526-6.859A7.067,7.067,0,0,0,505.4,170.859ZM410,168.485V186.95l-45.185-9.233ZM217.617,137.651a64.767,64.767,0,0,1,76.766,0l8.448,6.4L285.14,223H226.86l-17.691-78.947ZM102,168.485l45.185,9.232L102,186.95Zm-14,0V186.95l-45.185-9.233Zm5.605,33.9a7.738,7.738,0,0,0,1.474.141c.043,0,.121-.01.163-.01s.1.01.144.01a5.849,5.849,0,0,0,1.279-.141L114,198.816V222H76V198.816ZM103,369H87V236h16Zm14-44.845V312.364l97-73.809V262.5Zm139,62.737a31.667,31.667,0,1,1,31.667-31.666A31.7,31.7,0,0,1,256,386.892ZM266,310.6a48.643,48.643,0,0,0-20,0V297h20Zm6.667-27.6H228V237h56v46ZM298,262.5V237.682l97,74.658v11.815ZM425,369H409V236h16Zm11-147H398V198.816l17.326,3.567a6.369,6.369,0,0,0,1.335.141c.043,0,.051-.01.093-.01s.067.01.109.01a8.447,8.447,0,0,0,1.541-.141l17.6-3.567Zm-12-35.05V168.485l45.185,9.232Z"/></svg>