<svg xmlns="http://www.w3.org/2000/svg" xmlns:xlink="http://www.w3.org/1999/xlink" xml:space="preserve" version="1.1" style="shape-rendering:geometricPrecision;text-rendering:geometricPrecision;image-rendering:optimizeQuality;" viewBox="0 0 846.66 1058.325" x="0px" y="0px" fill-rule="evenodd" clip-rule="evenodd"><defs><style type="text/css">
   
    .fil0 {fill:black;fill-rule:nonzero}
   
  </style></defs><g><path class="fil0" d="M288.08 364.1l270.51 0c26.41,0 48.03,21.61 48.03,48.03l0 0.65 25.68 0 0 -13.43c0,-27.06 17.99,-50.94 43.85,-58.53l0 -54.64 -82.64 0c-22.8,0 -22.8,-34.47 0,-34.47l82.64 0 0 -19.03c0,-22.54 34.28,-22.54 34.28,0l0 19.03 82.63 0c22.8,0 22.8,34.47 0,34.47l-82.63 0 0 54.63c25.86,7.61 43.85,31.46 43.85,58.54l0 61.15c0,80.53 -121.98,80.53 -121.98,0l0 -13.44 -25.68 0 0 0.65c0,26.42 -21.62,48.02 -48.03,48.02l-6.68 0 0 50.9c0,46.37 -37.9,84.27 -84.28,84.27l-88.6 0c-46.34,0 -84.27,-37.94 -84.27,-84.27l0 -50.9 -6.68 0c-26.38,0 -48.03,-21.64 -48.03,-48.02l0 -0.65 -25.68 0 0 13.44c0,80.53 -121.98,80.53 -121.98,0l0 -61.15c0,-27.08 18,-50.93 43.85,-58.54l0 -54.63 -82.64 0c-22.79,0 -22.79,-34.47 0,-34.47l82.64 0 0 -19.03c0,-22.54 34.29,-22.54 34.29,0l0 19.03 82.64 0c22.79,0 22.79,34.47 0,34.47l-82.64 0 0 54.64c25.85,7.59 43.84,31.47 43.84,58.53l0 13.43 25.68 0 0 -0.65c0,-26.38 21.65,-48.03 48.03,-48.03zm40.96 118.04l188.59 0 0 -20.68 40.96 0c7.57,0 13.74,-6.19 13.74,-13.75l0 -35.58c0,-7.57 -6.18,-13.75 -13.74,-13.75l-270.51 0c-7.6,0 -13.75,6.14 -13.75,13.75l0 35.58c0,7.61 6.15,13.75 13.75,13.75l40.96 0 0 20.68zm188.59 39.9l-188.59 0 0 13.62 188.59 0 0 -13.62zm-9.31 53.51l-170 0c9.09,12.74 23.97,21.08 40.71,21.08l88.6 0c16.7,0 31.59,-8.36 40.69,-21.08zm158.26 -176.2l0 61.15c0,35.25 53.42,35.25 53.42,0l0 -61.15c0,-35.25 -53.42,-35.25 -53.42,0zm-539.9 0l0 61.15c0,35.25 53.41,35.25 53.41,0l0 -61.15c0,-35.25 -53.41,-35.25 -53.41,0z"/></g></svg>