<svg xmlns="http://www.w3.org/2000/svg" xmlns:xlink="http://www.w3.org/1999/xlink" xml:space="preserve" version="1.1" style="shape-rendering:geometricPrecision;text-rendering:geometricPrecision;image-rendering:optimizeQuality;" viewBox="0 0 846.66 1058.325" x="0px" y="0px" fill-rule="evenodd" clip-rule="evenodd"><defs><style type="text/css">
   
    .fil0 {fill:black}
   
  </style></defs><g><path class="fil0" d="M423.33 383.63c-37.45,0 -67.81,30.36 -67.81,67.81 0,37.46 30.36,67.82 67.81,67.82 37.45,0 67.82,-30.36 67.82,-67.82 0,-37.45 -30.37,-67.81 -67.82,-67.81zm-265.68 -82.62c33.86,5.21 59.37,34.71 59.37,69.14l0 5.62 29.52 0c7.87,-28.11 33.76,-48.06 63.21,-48.06l227.18 0c29.45,0 55.34,19.95 63.21,48.06l29.52 0 0 -5.62c0,-34.48 25.46,-63.93 59.36,-69.14 -5.09,-2.68 -9.16,-7.08 -11.4,-12.42 -8.36,4.27 -20.77,6.96 -34.62,6.96 -25.19,0 -45.62,-8.92 -45.62,-19.94 0,-11.04 20.43,-19.96 45.62,-19.96 15.51,0 29.21,3.38 37.44,8.56 4.55,-6.25 11.91,-10.31 20.23,-10.31 8.31,0 15.67,4.07 20.21,10.31 8.24,-5.17 21.93,-8.56 37.44,-8.56 25.2,0 45.61,8.92 45.61,19.96 0,11.02 -20.41,19.94 -45.61,19.94 -13.85,0 -26.25,-2.69 -34.62,-6.96 -2.32,5.52 -6.57,10.03 -11.91,12.68 33.12,5.89 57.78,35.05 57.78,68.88l0 45.25c0,90 -139.91,94.18 -139.91,0l0 -5.62 -29.22 0c-6.89,26.41 -29.8,46.17 -57.1,48.86l0 67.82c0,36.47 -29.82,66.3 -66.28,66.3l-107.44 0c-36.46,0 -66.28,-29.83 -66.28,-66.3l0 -67.82c-27.3,-2.69 -50.21,-22.45 -57.1,-48.86l-29.22 0 0 5.62c0,91.47 -139.91,91.56 -139.91,0l0 -45.25c0,-33.89 24.62,-62.98 57.78,-68.87 -5.34,-2.65 -9.59,-7.16 -11.91,-12.69 -8.36,4.27 -20.78,6.96 -34.63,6.96 -25.19,0 -45.61,-8.92 -45.61,-19.94 0,-11.04 20.42,-19.96 45.61,-19.96 15.5,0 29.2,3.38 37.44,8.56 4.55,-6.25 11.91,-10.31 20.22,-10.31 8.32,0 15.68,4.07 20.22,10.31 8.24,-5.17 21.94,-8.56 37.45,-8.56 25.18,0 45.61,8.92 45.61,19.96 0,11.02 -20.43,19.94 -45.61,19.94 -13.85,0 -26.27,-2.7 -34.63,-6.96 -2.25,5.34 -6.3,9.74 -11.4,12.42zm379.28 60.71l-227.18 0c-41.9,0 -41.4,63.22 0,63.22l27.6 0 0 101.52c0,17.76 14.52,32.29 32.27,32.29l107.44 0c17.76,0 32.27,-14.53 32.27,-32.29l0 -101.52 27.6 0c41.56,0 41.56,-63.22 0,-63.22zm126.75 8.43l0 45.25c0,48.35 71.87,46.25 71.87,0l0 -45.25c0,-46.25 -71.87,-48.89 -71.87,0zm-552.55 0l0 45.25c0,47.7 71.87,46.86 71.87,0l0 -45.25c0,-47.27 -71.87,-47.21 -71.87,0zm316.73 48.71c12.55,0.81 13.77,-18.22 1.27,-19.04 -37,-2.51 -62.64,32.92 -52.94,67.96 3.33,12.08 21.7,7.02 18.37,-5.07 -6.07,-21.99 9.08,-45.51 33.3,-43.85z"/></g></svg>